<svg viewBox="0 0 200 200" xmlns="http://www.w3.org/2000/svg">
  <path fill="#a0c4ff" d="M100,20C50,20,20,50,20,100s30,80,80,80s80-30,80-80S150,20,100,20z M90,140c-22,0-40-18-40-40s18-40,40-40c5,0,10,1,14,3c-5,10-5,22,0,32C100,139,95,140,90,140z M110,140c-5,0-10-1-14-3c5-10,5-22,0-32c-4-2-9-3-14-3c22,0,40,18,40,40S132,140,110,140z"/>
  <path fill="#94e3a8" d="M100,60c-10,0-20,10-20,20c0,5,2,10,5,13c-2,5-2,11,1,15c-3-3-5-7-5-12c0-11,9-20,20-20s20,9,20,20c0,5-2,9-5,12c3-4,3-10,1-15c3-3,5-8,5-13C120,70,110,60,100,60z"/>
</svg>